<svg width="34" height="34" viewBox="0 0 34 34" fill="none" xmlns="http://www.w3.org/2000/svg">
<path d="M17 11.3334H5.66671C4.91526 11.3334 4.19459 11.6319 3.66324 12.1632C3.13188 12.6946 2.83337 13.4152 2.83337 14.1667V19.8334C2.83337 20.5848 3.13188 21.3055 3.66324 21.8368C4.19459 22.3682 4.91526 22.6667 5.66671 22.6667H7.08337V28.3334C7.08337 28.7091 7.23263 29.0694 7.49831 29.3351C7.76398 29.6008 8.12432 29.75 8.50004 29.75H11.3334C11.7091 29.75 12.0694 29.6008 12.3351 29.3351C12.6008 29.0694 12.75 28.7091 12.75 28.3334V22.6667H17L24.0834 28.3334V5.66669L17 11.3334ZM30.4584 17C30.4584 19.4225 29.0984 21.6184 26.9167 22.6667V11.3334C29.0842 12.3959 30.4584 14.5917 30.4584 17Z" fill="white"/>
</svg>
