<svg width="34" height="34" viewBox="0 0 34 34" fill="none" xmlns="http://www.w3.org/2000/svg">
<path d="M25.5 18.4167C25.9014 18.4167 26.2381 18.2807 26.5101 18.0087C26.7821 17.7367 26.9177 17.4005 26.9167 17C26.9158 16.5996 26.7798 16.2634 26.5087 15.9914C26.2377 15.7194 25.9014 15.5834 25.5 15.5834H21.25C20.8487 15.5834 20.5124 15.7194 20.2414 15.9914C19.9703 16.2634 19.8343 16.5996 19.8334 17C19.8324 17.4005 19.9684 17.7372 20.2414 18.0101C20.5143 18.283 20.8505 18.4186 21.25 18.4167H25.5ZM25.5 14.1667C25.9014 14.1667 26.2381 14.0307 26.5101 13.7587C26.7821 13.4867 26.9177 13.1505 26.9167 12.75C26.9158 12.3496 26.7798 12.0134 26.5087 11.7414C26.2377 11.4694 25.9014 11.3334 25.5 11.3334H21.25C20.8487 11.3334 20.5124 11.4694 20.2414 11.7414C19.9703 12.0134 19.8343 12.3496 19.8334 12.75C19.8324 13.1505 19.9684 13.4872 20.2414 13.7601C20.5143 14.033 20.8505 14.1686 21.25 14.1667H25.5ZM12.75 18.4167C11.9 18.4167 11.1327 18.4937 10.448 18.6476C9.76324 18.8015 9.16115 19.0433 8.64171 19.3729C8.14587 19.6799 7.7681 20.0284 7.50837 20.4184C7.24865 20.8085 7.11879 21.2274 7.11879 21.675C7.11879 21.9584 7.22504 22.1945 7.43754 22.3834C7.65004 22.5722 7.90976 22.6667 8.21671 22.6667H17.2834C17.5903 22.6667 17.85 22.5661 18.0625 22.3649C18.275 22.1638 18.3813 21.9102 18.3813 21.6042C18.3813 21.2028 18.2514 20.8132 17.9917 20.4354C17.732 20.0577 17.3542 19.7035 16.8584 19.3729C16.3389 19.0424 15.7368 18.8001 15.0521 18.6462C14.3674 18.4922 13.6 18.4157 12.75 18.4167ZM12.75 17C13.5292 17 14.196 16.7228 14.7504 16.1684C15.3048 15.614 15.5824 14.9468 15.5834 14.1667C15.5843 13.3866 15.3071 12.7198 14.7518 12.1664C14.1965 11.6129 13.5292 11.3352 12.75 11.3334C11.9709 11.3315 11.3041 11.6091 10.7497 12.1664C10.1953 12.7236 9.91765 13.3904 9.91671 14.1667C9.91576 14.943 10.1934 15.6103 10.7497 16.1684C11.306 16.7266 11.9728 17.0038 12.75 17ZM5.66671 28.3334C4.88754 28.3334 4.22076 28.0562 3.66637 27.5018C3.11199 26.9474 2.83432 26.2801 2.83337 25.5V8.50002C2.83337 7.72085 3.11104 7.05408 3.66637 6.49969C4.22171 5.9453 4.88849 5.66763 5.66671 5.66669H28.3334C29.1125 5.66669 29.7798 5.94435 30.3351 6.49969C30.8905 7.05502 31.1677 7.7218 31.1667 8.50002V25.5C31.1667 26.2792 30.8895 26.9464 30.3351 27.5018C29.7807 28.0571 29.1135 28.3343 28.3334 28.3334H5.66671ZM5.66671 25.5H28.3334V8.50002H5.66671V25.5Z" fill="white"/>
</svg>
