<svg width="34" height="34" viewBox="0 0 34 34" fill="none" xmlns="http://www.w3.org/2000/svg">
<path fill-rule="evenodd" clip-rule="evenodd" d="M24.4375 9.5625C25.0011 9.5625 25.5416 9.33862 25.9401 8.9401C26.3386 8.54159 26.5625 8.00109 26.5625 7.4375C26.5625 6.87391 26.3386 6.33341 25.9401 5.9349C25.5416 5.53638 25.0011 5.3125 24.4375 5.3125C23.8739 5.3125 23.3334 5.53638 22.9349 5.9349C22.5364 6.33341 22.3125 6.87391 22.3125 7.4375C22.3125 8.00109 22.5364 8.54159 22.9349 8.9401C23.3334 9.33862 23.8739 9.5625 24.4375 9.5625ZM24.4375 12.75C25.8465 12.75 27.1977 12.1903 28.194 11.194C29.1903 10.1977 29.75 8.84646 29.75 7.4375C29.75 6.02854 29.1903 4.67728 28.194 3.681C27.1977 2.68471 25.8465 2.125 24.4375 2.125C23.0285 2.125 21.6773 2.68471 20.681 3.681C19.6847 4.67728 19.125 6.02854 19.125 7.4375C19.125 8.84646 19.6847 10.1977 20.681 11.194C21.6773 12.1903 23.0285 12.75 24.4375 12.75ZM22.8438 15.4062C22.8438 14.9836 23.0117 14.5782 23.3105 14.2793C23.6094 13.9804 24.0148 13.8125 24.4375 13.8125C27.0683 13.8125 29.4589 14.6306 31.1908 15.8567C32.929 17.085 34 18.7212 34 20.3511C34 20.8878 33.8943 21.4191 33.6889 21.9149C33.4836 22.4107 33.1826 22.8612 32.8031 23.2406C32.4237 23.6201 31.9732 23.9211 31.4774 24.1264C30.9816 24.3318 30.4503 24.4375 29.9136 24.4375H29.2188C28.7961 24.4375 28.3907 24.2696 28.0918 23.9707C27.7929 23.6718 27.625 23.2664 27.625 22.8438C27.625 22.4211 27.7929 22.0157 28.0918 21.7168C28.3907 21.4179 28.7961 21.25 29.2188 21.25H29.9136C30.4109 21.25 30.8125 20.8462 30.8125 20.3511C30.8125 20.128 30.6021 19.3439 29.3505 18.4599C28.1711 17.6226 26.4286 17 24.4375 17C24.0148 17 23.6094 16.8321 23.3105 16.5332C23.0117 16.2343 22.8438 15.8289 22.8438 15.4062ZM4.6495 18.4578C5.82888 17.6248 7.57137 17 9.5625 17C9.98519 17 10.3906 16.8321 10.6895 16.5332C10.9883 16.2343 11.1562 15.8289 11.1562 15.4062C11.1562 14.9836 10.9883 14.5782 10.6895 14.2793C10.3906 13.9804 9.98519 13.8125 9.5625 13.8125C6.93175 13.8125 4.54113 14.6306 2.80925 15.8567C1.071 17.085 0 18.7212 0 20.3511C0 22.6079 1.82962 24.4375 4.08637 24.4375H4.78125C5.20394 24.4375 5.60932 24.2696 5.9082 23.9707C6.20709 23.6718 6.375 23.2664 6.375 22.8438C6.375 22.4211 6.20709 22.0157 5.9082 21.7168C5.60932 21.4179 5.20394 21.25 4.78125 21.25H4.08637C3.96833 21.25 3.85145 21.2268 3.74239 21.1816C3.63333 21.1364 3.53424 21.0702 3.45077 20.9867C3.36731 20.9033 3.3011 20.8042 3.25592 20.6951C3.21075 20.5861 3.1875 20.4692 3.1875 20.3511C3.1875 20.128 3.39787 19.3439 4.6495 18.4599M9.5625 9.5625C10.1261 9.5625 10.6666 9.33862 11.0651 8.9401C11.4636 8.54159 11.6875 8.00109 11.6875 7.4375C11.6875 6.87391 11.4636 6.33341 11.0651 5.9349C10.6666 5.53638 10.1261 5.3125 9.5625 5.3125C8.99891 5.3125 8.45841 5.53638 8.0599 5.9349C7.66138 6.33341 7.4375 6.87391 7.4375 7.4375C7.4375 8.00109 7.66138 8.54159 8.0599 8.9401C8.45841 9.33862 8.99891 9.5625 9.5625 9.5625ZM9.5625 12.75C10.9715 12.75 12.3227 12.1903 13.319 11.194C14.3153 10.1977 14.875 8.84646 14.875 7.4375C14.875 6.02854 14.3153 4.67728 13.319 3.681C12.3227 2.68471 10.9715 2.125 9.5625 2.125C8.15354 2.125 6.80228 2.68471 5.80599 3.681C4.80971 4.67728 4.25 6.02854 4.25 7.4375C4.25 8.84646 4.80971 10.1977 5.80599 11.194C6.80228 12.1903 8.15354 12.75 9.5625 12.75ZM22.8438 20.1875H22.3125V19.125C22.3125 17.716 21.7528 16.3648 20.7565 15.3685C19.7602 14.3722 18.409 13.8125 17 13.8125C15.591 13.8125 14.2398 14.3722 13.2435 15.3685C12.2472 16.3648 11.6875 17.716 11.6875 19.125V20.1875H11.1562C9.69 20.1875 8.5 21.3775 8.5 22.8438V29.2188C8.5 30.685 9.69 31.875 11.1562 31.875H22.8438C24.31 31.875 25.5 30.685 25.5 29.2188V22.8438C25.5 21.3775 24.31 20.1875 22.8438 20.1875ZM19.125 19.125V20.1875H14.875V19.125C14.875 18.5614 15.0989 18.0209 15.4974 17.6224C15.8959 17.2239 16.4364 17 17 17C17.5636 17 18.1041 17.2239 18.5026 17.6224C18.9011 18.0209 19.125 18.5614 19.125 19.125ZM11.6875 23.375V28.6875H22.3125V23.375H11.6875Z" fill="white"/>
</svg>
