<svg width="34" height="34" viewBox="0 0 34 34" fill="none" xmlns="http://www.w3.org/2000/svg">
<path d="M19.8334 18.4167H26.9167V15.5834H19.8334V18.4167ZM19.8334 14.1667H26.9167V11.3334H19.8334V14.1667ZM7.08337 22.6667H18.4167V21.8875C18.4167 20.825 17.8973 19.9812 16.8584 19.3559C15.8195 18.7307 14.45 18.4176 12.75 18.4167C11.05 18.4157 9.6806 18.7288 8.64171 19.3559C7.60282 19.983 7.08337 20.8269 7.08337 21.8875V22.6667ZM12.75 17C13.5292 17 14.1965 16.7228 14.7518 16.1684C15.3071 15.614 15.5843 14.9468 15.5834 14.1667C15.5824 13.3866 15.3052 12.7198 14.7518 12.1664C14.1983 11.6129 13.5311 11.3352 12.75 11.3334C11.969 11.3315 11.3022 11.6091 10.7497 12.1664C10.1972 12.7236 9.91954 13.3904 9.91671 14.1667C9.91387 14.943 10.1915 15.6103 10.7497 16.1684C11.3079 16.7266 11.9747 17.0038 12.75 17ZM5.66671 28.3334C4.88754 28.3334 4.22076 28.0562 3.66637 27.5018C3.11199 26.9474 2.83432 26.2801 2.83337 25.5V8.50002C2.83337 7.72085 3.11104 7.05408 3.66637 6.49969C4.22171 5.9453 4.88849 5.66763 5.66671 5.66669H28.3334C29.1125 5.66669 29.7798 5.94435 30.3351 6.49969C30.8905 7.05502 31.1677 7.7218 31.1667 8.50002V25.5C31.1667 26.2792 30.8895 26.9464 30.3351 27.5018C29.7807 28.0571 29.1135 28.3343 28.3334 28.3334H5.66671Z" fill="white"/>
</svg>
