<svg width="35" height="34" viewBox="0 0 35 34" fill="none" xmlns="http://www.w3.org/2000/svg">
<path d="M27.6657 4.27667H26.252C24.6904 4.27667 23.4246 5.54254 23.4246 7.10407V26.8959C23.4246 28.4574 24.6904 29.7233 26.252 29.7233H27.6657C29.2272 29.7233 30.4931 28.4574 30.4931 26.8959V7.10407C30.4931 5.54254 29.2272 4.27667 27.6657 4.27667Z" fill="white"/>
<path d="M18.4767 12.7589H17.063C15.5015 12.7589 14.2356 14.0247 14.2356 15.5862V26.8958C14.2356 28.4574 15.5015 29.7232 17.063 29.7232H18.4767C20.0382 29.7232 21.3041 28.4574 21.3041 26.8958V15.5862C21.3041 14.0247 20.0382 12.7589 18.4767 12.7589Z" fill="white"/>
<path d="M9.28761 22.6548H7.87391C6.31238 22.6548 5.04651 23.9207 5.04651 25.4822V26.8959C5.04651 28.4574 6.31238 29.7233 7.87391 29.7233H9.28761C10.8491 29.7233 12.115 28.4574 12.115 26.8959V25.4822C12.115 23.9207 10.8491 22.6548 9.28761 22.6548Z" fill="white"/>
</svg>
