<svg width="34" height="34" viewBox="0 0 34 34" fill="none" xmlns="http://www.w3.org/2000/svg">
<path d="M13.1041 31.1666L12.5375 26.6333C12.2305 26.5153 11.9415 26.3736 11.6705 26.2083C11.3994 26.043 11.1335 25.866 10.8729 25.6771L6.65828 27.4479L2.76245 20.7187L6.41037 17.9562C6.38676 17.791 6.37495 17.6318 6.37495 17.4788V16.5226C6.37495 16.3686 6.38676 16.209 6.41037 16.0437L2.76245 13.2812L6.65828 6.55206L10.8729 8.3229C11.1326 8.13401 11.4041 7.95692 11.6875 7.79165C11.9708 7.62637 12.2541 7.4847 12.5375 7.36665L13.1041 2.83331H20.8958L21.4625 7.36665C21.7694 7.4847 22.0589 7.62637 22.3309 7.79165C22.6029 7.95692 22.8683 8.13401 23.127 8.3229L27.3416 6.55206L31.2375 13.2812L27.5895 16.0437C27.6131 16.209 27.625 16.3686 27.625 16.5226V17.4774C27.625 17.6313 27.6013 17.791 27.5541 17.9562L31.202 20.7187L27.3062 27.4479L23.127 25.6771C22.8673 25.866 22.5958 26.043 22.3125 26.2083C22.0291 26.3736 21.7458 26.5153 21.4625 26.6333L20.8958 31.1666H13.1041ZM17.0708 21.9583C18.4402 21.9583 19.609 21.4743 20.577 20.5062C21.5451 19.5382 22.0291 18.3694 22.0291 17C22.0291 15.6305 21.5451 14.4618 20.577 13.4937C19.609 12.5257 18.4402 12.0416 17.0708 12.0416C15.6777 12.0416 14.5028 12.5257 13.5461 13.4937C12.5894 14.4618 12.1115 15.6305 12.1125 17C12.1134 18.3694 12.5918 19.5382 13.5475 20.5062C14.5033 21.4743 15.6777 21.9583 17.0708 21.9583Z" fill="white"/>
</svg>
